<svg xmlns="http://www.w3.org/2000/svg" viewBox="0 0 520 400" width="520" height="400">
  <style>text { font-family: -apple-system, sans-serif; }</style>
  <text x="260.0" y="18" text-anchor="middle" font-size="13" font-weight="600" fill="#1e293b">Benchmarks by Category</text>
  <text x="152" y="44" text-anchor="end" font-size="11" fill="#475569">General Multimodal</text><rect x="160" y="32" width="300.0" height="18" fill="#6366f1" rx="3"/><text x="466.0" y="44" font-size="10" fill="#64748b">307</text><text x="152" y="68" text-anchor="end" font-size="11" fill="#475569">Visual Reasoning</text><rect x="160" y="56" width="291.20521172638433" height="18" fill="#6366f1" rx="3"/><text x="457.20521172638433" y="68" font-size="10" fill="#64748b">298</text><text x="152" y="92" text-anchor="end" font-size="11" fill="#475569">Video Understanding</text><rect x="160" y="80" width="214.00651465798046" height="18" fill="#6366f1" rx="3"/><text x="380.00651465798046" y="92" font-size="10" fill="#64748b">219</text><text x="152" y="116" text-anchor="end" font-size="11" fill="#475569">Medical</text><rect x="160" y="104" width="205.21172638436482" height="18" fill="#6366f1" rx="3"/><text x="371.21172638436485" y="116" font-size="10" fill="#64748b">210</text><text x="152" y="140" text-anchor="end" font-size="11" fill="#475569">Safety & Bias</text><rect x="160" y="128" width="186.64495114006516" height="18" fill="#6366f1" rx="3"/><text x="352.64495114006513" y="140" font-size="10" fill="#64748b">191</text><text x="152" y="164" text-anchor="end" font-size="11" fill="#475569">Egocentric & Embodied</text><rect x="160" y="152" width="184.69055374592836" height="18" fill="#6366f1" rx="3"/><text x="350.69055374592836" y="164" font-size="10" fill="#64748b">189</text><text x="152" y="188" text-anchor="end" font-size="11" fill="#475569">Spatial & 3D</text><rect x="160" y="176" width="140.71661237785017" height="18" fill="#6366f1" rx="3"/><text x="306.7166123778502" y="188" font-size="10" fill="#64748b">144</text><text x="152" y="212" text-anchor="end" font-size="11" fill="#475569">Math & Science</text><rect x="160" y="200" width="115.30944625407166" height="18" fill="#6366f1" rx="3"/><text x="281.30944625407164" y="212" font-size="10" fill="#64748b">118</text><text x="152" y="236" text-anchor="end" font-size="11" fill="#475569">Document & OCR</text><rect x="160" y="224" width="103.58306188925081" height="18" fill="#6366f1" rx="3"/><text x="269.5830618892508" y="236" font-size="10" fill="#64748b">106</text><text x="152" y="260" text-anchor="end" font-size="11" fill="#475569">GUI & Web Agents</text><rect x="160" y="248" width="87.94788273615636" height="18" fill="#6366f1" rx="3"/><text x="253.94788273615637" y="260" font-size="10" fill="#64748b">90</text><text x="152" y="284" text-anchor="end" font-size="11" fill="#475569">Audio-Visual</text><rect x="160" y="272" width="79.15309446254072" height="18" fill="#6366f1" rx="3"/><text x="245.1530944625407" y="284" font-size="10" fill="#64748b">81</text><text x="152" y="308" text-anchor="end" font-size="11" fill="#475569">Geospatial</text><rect x="160" y="296" width="72.31270358306189" height="18" fill="#6366f1" rx="3"/><text x="238.31270358306188" y="308" font-size="10" fill="#64748b">74</text><text x="152" y="332" text-anchor="end" font-size="11" fill="#475569">Hallucination</text><rect x="160" y="320" width="66.44951140065146" height="18" fill="#6366f1" rx="3"/><text x="232.44951140065146" y="332" font-size="10" fill="#64748b">68</text><text x="152" y="356" text-anchor="end" font-size="11" fill="#475569">Temporal Reasoning</text><rect x="160" y="344" width="64.49511400651465" height="18" fill="#6366f1" rx="3"/><text x="230.49511400651465" y="356" font-size="10" fill="#64748b">66</text><text x="152" y="380" text-anchor="end" font-size="11" fill="#475569">Grounding & Localization</text><rect x="160" y="368" width="57.65472312703583" height="18" fill="#6366f1" rx="3"/><text x="223.65472312703582" y="380" font-size="10" fill="#64748b">59</text>
</svg>