<svg xmlns="http://www.w3.org/2000/svg" viewBox="0 0 620 220" width="620" height="220">
  <style>text { font-family: -apple-system, sans-serif; }</style>
  <text x="310.0" y="14" text-anchor="middle" font-size="13" font-weight="600" fill="#1e293b">New VLM Benchmarks by Quarter</text>
  <line x1="50" y1="180" x2="610" y2="180" stroke="#e2e8f0" stroke-width="1"/>
  <rect x="50" y="176.00713012477718" width="36" height="3.9928698752228167" fill="#6366f1" rx="3"/><text x="68.0" y="171.00713012477718" text-anchor="middle" font-size="10" fill="#64748b">14</text><rect x="90" y="169.44741532976826" width="36" height="10.552584670231727" fill="#6366f1" rx="3"/><text x="108.0" y="164.44741532976826" text-anchor="middle" font-size="10" fill="#64748b">37</text><rect x="130" y="170.3030303030303" width="36" height="9.696969696969697" fill="#6366f1" rx="3"/><text x="148.0" y="165.3030303030303" text-anchor="middle" font-size="10" fill="#64748b">34</text><rect x="170" y="161.1764705882353" width="36" height="18.823529411764707" fill="#6366f1" rx="3"/><text x="188.0" y="156.1764705882353" text-anchor="middle" font-size="10" fill="#64748b">66</text><rect x="210" y="157.75401069518716" width="36" height="22.245989304812834" fill="#6366f1" rx="3"/><text x="228.0" y="152.75401069518716" text-anchor="middle" font-size="10" fill="#64748b">78</text><rect x="250" y="137.2192513368984" width="36" height="42.780748663101605" fill="#6366f1" rx="3"/><text x="268.0" y="132.2192513368984" text-anchor="middle" font-size="10" fill="#64748b">150</text><rect x="290" y="142.9233511586453" width="36" height="37.076648841354725" fill="#6366f1" rx="3"/><text x="308.0" y="137.9233511586453" text-anchor="middle" font-size="10" fill="#64748b">130</text><rect x="330" y="118.68092691622104" width="36" height="61.31907308377897" fill="#6366f1" rx="3"/><text x="348.0" y="113.68092691622104" text-anchor="middle" font-size="10" fill="#64748b">215</text><rect x="370" y="106.98752228163994" width="36" height="73.01247771836006" fill="#6366f1" rx="3"/><text x="388.0" y="101.98752228163994" text-anchor="middle" font-size="10" fill="#64748b">256</text><rect x="410" y="48.520499108734384" width="36" height="131.47950089126562" fill="#6366f1" rx="3"/><text x="428.0" y="43.520499108734384" text-anchor="middle" font-size="10" fill="#64748b">461</text><rect x="450" y="62.495543672014264" width="36" height="117.50445632798574" fill="#6366f1" rx="3"/><text x="468.0" y="57.495543672014264" text-anchor="middle" font-size="10" fill="#64748b">412</text><rect x="490" y="43.3868092691622" width="36" height="136.6131907308378" fill="#6366f1" rx="3"/><text x="508.0" y="38.3868092691622" text-anchor="middle" font-size="10" fill="#64748b">479</text><rect x="530" y="20.0" width="36" height="160.0" fill="#6366f1" rx="3"/><text x="548.0" y="15.0" text-anchor="middle" font-size="10" fill="#64748b">561</text><rect x="570" y="173.72549019607843" width="36" height="6.2745098039215685" fill="#6366f1" rx="3"/><text x="588.0" y="168.72549019607843" text-anchor="middle" font-size="10" fill="#64748b">22</text>
  <text x="68.0" y="196" text-anchor="middle" font-size="9" fill="#64748b" transform="rotate(-45 68.0 196)">2023 Q1</text><text x="148.0" y="196" text-anchor="middle" font-size="9" fill="#64748b" transform="rotate(-45 148.0 196)">2023 Q3</text><text x="228.0" y="196" text-anchor="middle" font-size="9" fill="#64748b" transform="rotate(-45 228.0 196)">2024 Q1</text><text x="308.0" y="196" text-anchor="middle" font-size="9" fill="#64748b" transform="rotate(-45 308.0 196)">2024 Q3</text><text x="388.0" y="196" text-anchor="middle" font-size="9" fill="#64748b" transform="rotate(-45 388.0 196)">2025 Q1</text><text x="468.0" y="196" text-anchor="middle" font-size="9" fill="#64748b" transform="rotate(-45 468.0 196)">2025 Q3</text><text x="548.0" y="196" text-anchor="middle" font-size="9" fill="#64748b" transform="rotate(-45 548.0 196)">2026 Q1</text><text x="588.0" y="196" text-anchor="middle" font-size="9" fill="#64748b" transform="rotate(-45 588.0 196)">2026 Q2</text>
</svg>